<?xml version="1.0" encoding="iso-8859-1"?>
<!-- Uploaded to: SVG Repo, www.svgrepo.com, Generator: SVG Repo Mixer Tools -->
<svg height="800px" width="800px" version="1.1" id="Layer_1" xmlns="http://www.w3.org/2000/svg" xmlns:xlink="http://www.w3.org/1999/xlink" 
	 viewBox="0 0 512 512" xml:space="preserve">
<path style="fill:#FFDA44;" d="M494.933,358.4H17.067v-17.067C17.067,209.585,124.252,102.4,256,102.4
	s238.933,107.185,238.933,238.933V358.4z"/>
<path style="fill:#403711;" d="M314.406,358.4H197.594v-4.171c0-32.205,26.201-58.407,58.406-58.407s58.406,26.202,58.406,58.407
	V358.4z"/>
<path style="fill:#FF9811;" d="M51.904,324.267h408.191C451.393,219.296,363.179,136.533,256,136.533S60.607,219.296,51.904,324.267
	z"/>
<path style="fill:#802812;" d="M101.382,335.644h309.235C404.025,256.122,337.196,193.422,256,193.422
	S107.975,256.122,101.382,335.644z"/>
<path style="fill:#806D22;" d="M176.356,335.644h160.802c-3.428-41.351-38.179-73.956-80.401-73.956
	S179.784,294.293,176.356,335.644z"/>
<path style="fill:#BF3C1A;" d="M426.667,341.333h-34.133c0-75.284-61.249-136.533-136.533-136.533s-136.533,61.249-136.533,136.533
	H85.333c0-94.106,76.561-170.667,170.667-170.667S426.667,247.228,426.667,341.333z"/>
<path style="fill:#BFA433;" d="M358.4,341.333h-34.133c0-37.642-30.624-68.267-68.267-68.267s-68.267,30.624-68.267,68.267H153.6
	c0-56.463,45.937-102.4,102.4-102.4S358.4,284.87,358.4,341.333z"/>
<path style="fill:#403711;" d="M290.133,341.333h-68.267c0-18.821,15.312-34.133,34.133-34.133S290.133,322.512,290.133,341.333z"/>
<g>
	<path style="fill:#DEDDE0;" d="M191.466,307.334c-7.675-32.645-37.045-57.023-72-57.023s-64.324,24.378-72,57.023
		C20.973,309.255,0,331.424,0,358.4c0,28.233,22.968,51.2,51.2,51.2h136.533c28.232,0,51.2-22.967,51.2-51.2
		C238.933,331.424,217.961,309.255,191.466,307.334z"/>
	<path style="fill:#DEDDE0;" d="M464.533,307.334c-7.675-32.645-37.045-57.023-72-57.023s-64.324,24.378-72,57.023
		c-26.494,1.921-47.467,24.09-47.467,51.066c0,28.233,22.968,51.2,51.2,51.2H460.8c28.232,0,51.2-22.967,51.2-51.2
		C512,331.424,491.027,309.255,464.533,307.334z"/>
</g>
<g>
	<path style="fill:#CDCDD0;" d="M464.533,307.334c-7.675-32.645-37.045-57.023-72-57.023c0,60.353,0,159.289,0,159.289H460.8
		c28.232,0,51.2-22.967,51.2-51.2C512,331.424,491.027,309.255,464.533,307.334z"/>
	<path style="fill:#CDCDD0;" d="M191.466,307.334c-7.675-32.645-37.045-57.023-72-57.023c0,60.353,0,159.289,0,159.289h68.267
		c28.232,0,51.2-22.967,51.2-51.2C238.933,331.424,217.961,309.255,191.466,307.334z"/>
</g>
</svg>